<svg id="Layer_1" xmlns="http://www.w3.org/2000/svg" viewBox="0 0 74.0630035 74.0630035"><style>.st0{fill:#5ed3eb}</style><path class="st0" d="M.16 37.19a36.918 36.918 0 0 0 36.964 36.873c20.39-.025 36.897-16.575 36.872-36.964S57.421.202 37.032.227.135 16.802.16 37.191zm2.993-.313a33.925 33.925 0 0 1 33.97-33.879c18.737.025 33.905 15.234 33.88 33.97-.025 18.737-15.235 33.906-33.97 33.88S3.127 55.613 3.152 36.877z"/><path class="st0" d="M19.47 35.954l11.73-11.73a1.5 1.5 0 0 1 2.12 2.12l-9.186 9.186h29.603a1.5 1.5 0 1 1 0 3H24.13l9.189 9.186a1.5 1.5 0 0 1-2.118 2.126L19.454 38.095l-.001-.002a1.495 1.495 0 0 1 .017-2.139z"/></svg>