<svg xmlns="http://www.w3.org/2000/svg" width="35.427" height="35.428" viewBox="0 0 35.427 35.428"><path id="Path_86" data-name="Path 86" d="M31 35.427H4.428A4.428 4.428 0 0 1 0 31V4.428A4.428 4.428 0 0 1 4.428 0H31a4.428 4.428 0 0 1 4.428 4.428V31A4.428 4.428 0 0 1 31 35.427zm-17.394-8.716a12.837 12.837 0 0 0 12.926-12.925c0-.2 0-.393-.013-.587a9.243 9.243 0 0 0 2.266-2.352 9.068 9.068 0 0 1-2.609.715 4.558 4.558 0 0 0 2-2.513 9.1 9.1 0 0 1-2.885 1.1 4.547 4.547 0 0 0-7.742 4.143 12.9 12.9 0 0 1-9.365-4.744 4.547 4.547 0 0 0 1.406 6.065 4.509 4.509 0 0 1-2.057-.568v.058a4.545 4.545 0 0 0 3.645 4.454 4.536 4.536 0 0 1-2.052.078 4.548 4.548 0 0 0 4.244 3.155 9.116 9.116 0 0 1-5.642 1.945 9.239 9.239 0 0 1-1.084-.063 12.861 12.861 0 0 0 6.964 2.041" fill="#fff"/></svg>