<svg xmlns="http://www.w3.org/2000/svg" width="19.621" height="21.584" viewBox="0 0 19.621 21.584"><g id="Group_277" data-name="Group 277" transform="translate(-1578.73 -5873.634)"><path id="Path_2071" data-name="Path 2071" d="M15223.465 5877.621v11.59h18.621v-11.59" transform="translate(-13644.234 5.508)" fill="none" stroke="#5ed3eb" stroke-linecap="round"/><path id="Path_28" data-name="Path 28" d="M8.075.152a.518.518 0 0 0-.8.079.531.531 0 0 0 .083.669l4.81 4.81H.547A.537.537 0 0 0 0 6.2a.518.518 0 0 0 .517.545h11.651l-4.8 4.8a.537.537 0 0 0-.047.723.518.518 0 0 0 .758.029l5.867-5.867a.292.292 0 0 0 0-.414z" transform="rotate(90 -2139.526 3734.108)" fill="#5ed3eb"/></g></svg>