<svg id="Group_111" data-name="Group 111" xmlns="http://www.w3.org/2000/svg" width="35.427" height="35.428" viewBox="0 0 35.427 35.428"><path id="Path_87" data-name="Path 87" d="M21.793 7.271c4.73 0 5.29.018 7.158.1a9.8 9.8 0 0 1 3.289.61 5.866 5.866 0 0 1 3.36 3.365 9.8 9.8 0 0 1 .61 3.289c.085 1.868.1 2.428.1 7.158s-.018 5.29-.1 7.158a9.8 9.8 0 0 1-.61 3.289 5.866 5.866 0 0 1-3.36 3.36 9.8 9.8 0 0 1-3.289.61c-1.868.085-2.428.1-7.158.1s-5.29-.018-7.158-.1a9.8 9.8 0 0 1-3.289-.61 5.866 5.866 0 0 1-3.362-3.36 9.8 9.8 0 0 1-.61-3.289c-.085-1.868-.1-2.428-.1-7.158s.018-5.29.1-7.158a9.8 9.8 0 0 1 .61-3.289 5.866 5.866 0 0 1 3.362-3.362 9.8 9.8 0 0 1 3.289-.61c1.868-.085 2.428-.1 7.158-.1m0-3.192c-4.811 0-5.414.02-7.3.107a13 13 0 0 0-4.3.823 9.058 9.058 0 0 0-5.184 5.178 13 13 0 0 0-.823 4.3c-.086 1.889-.107 2.493-.107 7.3s.02 5.414.107 7.3a13 13 0 0 0 .823 4.3 9.058 9.058 0 0 0 5.181 5.181 13 13 0 0 0 4.3.823c1.889.086 2.493.107 7.3.107s5.414-.02 7.3-.107a13 13 0 0 0 4.3-.823 9.058 9.058 0 0 0 5.187-5.171 13 13 0 0 0 .823-4.3c.086-1.889.107-2.493.107-7.3s-.02-5.414-.107-7.3a13 13 0 0 0-.823-4.3A9.058 9.058 0 0 0 33.4 5.009a13 13 0 0 0-4.3-.823c-1.889-.086-2.493-.107-7.3-.107z" transform="translate(-4.079 -4.079)" fill="#fff"/><path id="Path_88" data-name="Path 88" d="M135.731 126.635a9.1 9.1 0 1 0 9.1 9.1 9.1 9.1 0 0 0-9.1-9.1zm0 15a5.9 5.9 0 1 1 5.9-5.9 5.9 5.9 0 0 1-5.9 5.901z" transform="translate(-118.018 -118.018)" fill="#fff"/><circle id="Ellipse_11" data-name="Ellipse 11" cx="2.126" cy="2.126" r="2.126" transform="translate(25.044 6.132)" fill="#fff"/></svg>