<svg xmlns="http://www.w3.org/2000/svg" width="35.427" height="35.427" viewBox="0 0 35.427 35.427"><g id="Group_114" data-name="Group 114"><g id="Group_113" data-name="Group 113"><g id="Group_112" data-name="Group 112"><path id="Path_90" data-name="Path 90" d="M32.8 0H2.613A2.584 2.584 0 0 0 0 2.554v30.317a2.586 2.586 0 0 0 2.613 2.557H32.8a2.6 2.6 0 0 0 2.625-2.557V2.554A2.593 2.593 0 0 0 32.8 0zM10.51 30.188H5.25V13.283h5.26zM7.881 10.97a3.046 3.046 0 1 1 3.046-3.047 3.045 3.045 0 0 1-3.046 3.047zm22.3 19.218h-5.25v-8.221c0-1.96-.037-4.482-2.731-4.482-2.735 0-3.152 2.135-3.152 4.341v8.363h-5.242V13.283h5.037v2.31h.072a5.52 5.52 0 0 1 4.972-2.731c5.317 0 6.3 3.5 6.3 8.054z" transform="translate(0 -.001)" fill="#fff"/></g></g></g></svg>