<svg xmlns="http://www.w3.org/2000/svg" width="94" height="8.933" viewBox="0 0 94 8.933"><g data-name="Group 275" fill="#2e3947"><path data-name="Path 28" d="M89.757.165a.369.369 0 0 0-.568.057.379.379 0 0 0 .057.475l3.429 3.429h-8.284a.383.383 0 0 0-.389.349.369.369 0 0 0 .368.389h8.305L89.25 8.289a.383.383 0 0 0-.033.516.369.369 0 0 0 .541.02l4.183-4.182a.209.209 0 0 0 0-.295z"/><path data-name="Path 84" d="M4.244.165a.369.369 0 0 1 .568.057.379.379 0 0 1-.057.475L1.326 4.126H9.61a.383.383 0 0 1 .389.349.369.369 0 0 1-.368.389H1.326l3.425 3.425a.383.383 0 0 1 .033.516.369.369 0 0 1-.541.02L.06 4.643a.209.209 0 0 1 0-.295z"/><path data-name="Path 2071" d="M29.984 2.268c0-.648.528-1.056 1.3-1.056a2.458 2.458 0 0 1 1.7.756.166.166 0 0 0 .252-.024l.492-.576a.174.174 0 0 0 0-.252 3.362 3.362 0 0 0-2.472-1.12 2.338 2.338 0 0 0-2.532 2.244c0 2.736 4.092 2.208 4.092 3.948 0 .708-.636 1.224-1.536 1.224a2.719 2.719 0 0 1-1.92-.876.179.179 0 0 0-.264-.012l-.54.576a.171.171 0 0 0-.024.24 3.33 3.33 0 0 0 2.736 1.3A2.614 2.614 0 0 0 34.1 6.228c0-2.88-4.116-2.244-4.116-3.96zM47.456.096h-.972a.184.184 0 0 0-.2.144l-1.996 6.576L42.116.24a.178.178 0 0 0-.192-.144h-.9a.226.226 0 0 0-.1.024.165.165 0 0 0-.1.12l-2.176 6.576L36.692.24a.192.192 0 0 0-.2-.144h-.972c-.132 0-.192.084-.144.2l2.556 8.052a.225.225 0 0 0 .228.144h.96a.22.22 0 0 0 .216-.144l2.148-6.3 2.136 6.3a.2.2 0 0 0 .2.144h.972a.22.22 0 0 0 .216-.144L47.6.296c.036-.116-.012-.2-.144-.2zm2.076.18v8.04a.17.17 0 0 0 .18.18h.948a.17.17 0 0 0 .18-.18V.276a.17.17 0 0 0-.18-.18h-.948a.17.17 0 0 0-.18.18zm6.2-.18H53.36a.17.17 0 0 0-.18.18v8.04a.17.17 0 0 0 .18.18h.948a.17.17 0 0 0 .18-.18V5.448h1.248a2.613 2.613 0 0 0 2.928-2.676A2.613 2.613 0 0 0 55.736.096zm-.048 4.176h-1.2v-3h1.2c.912 0 1.716.384 1.716 1.5s-.8 1.5-1.712 1.5zm9.432 3.048h-3.152V4.696h2.952a.17.17 0 0 0 .18-.18v-.82a.17.17 0 0 0-.18-.18h-2.952V1.272h3.144a.17.17 0 0 0 .18-.18V.276a.17.17 0 0 0-.18-.18h-4.272a.17.17 0 0 0-.18.18v8.04a.17.17 0 0 0 .18.18h4.284a.17.17 0 0 0 .18-.18v-.82a.17.17 0 0 0-.18-.176z"/></g></svg>