<?xml version="1.0" encoding="utf-8"?>
<!-- Generator: Adobe Illustrator 22.0.1, SVG Export Plug-In . SVG Version: 6.00 Build 0)  -->
<!DOCTYPE svg PUBLIC "-//W3C//DTD SVG 1.1//EN" "http://www.w3.org/Graphics/SVG/1.1/DTD/svg11.dtd">
<svg version="1.1" id="CaseIH_Logo" xmlns="http://www.w3.org/2000/svg" xmlns:xlink="http://www.w3.org/1999/xlink" x="0px"
	 y="0px" viewBox="0 0 254.575 72.95" style="enable-background:new 0 0 254.575 72.95;" xml:space="preserve">
<style type="text/css">
	.st0{fill:#FFFFFF;}
</style>
<path id="Path_102" class="st0" d="M240.875,0l-2.5,9.8h-13l2.5-9.8H240.875z"/>
<path id="Path_103" class="st0" d="M215.975,46.4l9-34.9h12.9l-9,34.9H215.975z"/>
<path id="Path_104" class="st0" d="M156.075,11.6h36.6l-2.3,9.1h-23.1l-1.2,4.6h22.2l-1.9,7.4h-22.2l-1.2,4.6h23.2l-2.3,9.2h-36.6
	L156.075,11.6L156.075,11.6z M105.275,34.2h13.7c0,0.1-0.1,5.1,7.2,5.1c5,0,5.8-1.6,5.9-2.3c0.3-1.3-0.6-2-2.5-2.4
	c-6-1.4-14.2-4.1-16.3-5.4c-2.4-1.4-3.9-4.1-3.8-6.9c0-5.4,6.3-12,19.9-11.9c6.8,0,11,1.4,13.5,2.5c3.8,1.7,6.1,5.6,5.7,9.8h-13.4
	c0,0,0-3.9-5.6-4.1c-2.8-0.1-5.9,0.4-5.9,2.6c0,1.9,1.9,2.3,6.4,3.4c1.1,0.2,8.3,1.7,10.7,2.6c4.2,1.5,6.2,3.7,5.6,8.3
	c-1.4,10.2-14.7,11.9-21.5,11.9c-8.5,0-17.4-1.5-19.3-10C105.475,36.3,105.375,35.2,105.275,34.2L105.275,34.2z M88.875,35.2
	l-1.1-13.2l-8.7,13.2H88.875z M98.175,11.6l6.1,34.9h-14.7l-0.3-4.1h-14.4l-2.7,4.1h-15.6l25.7-34.9L98.175,11.6z M60.475,35.7
	c-0.8,1.7-1.9,3.3-3.2,4.7c-3.2,3.4-8.7,6.8-18.1,6.8c-11.4,0-15.9-4.1-18.2-8.1c-1.4-2.6-2.1-5.6-1.7-8.6
	c0.5-4.8,5.1-20.2,25.4-20.2c11.4,0,15.9,3.7,17.6,7.9c1.4,3.3,0.9,8.4,0.8,8.8h-13.4c0.4-2.6-0.4-6.8-4.9-6.9
	c-5.2,0.1-9.8,3.6-11.2,8.6c-1.5,5.5,1.6,8.8,6.4,8.9c3.1,0,6.1-1.6,7.8-4.2h13.6C61.175,33.9,60.775,35.1,60.475,35.7z"/>
<path id="Path_105" class="st0" d="M217.175,34.7l3-11.6h-1.8l3-11.6h-13l-9,34.9h13l3-11.8L217.175,34.7z"/>
<path id="Path_106" class="st0" d="M238.575,23.1h-1.9l-3,11.6h1.9l-3,11.8h12.9l9-34.9h-13L238.575,23.1z"/>
<g id="Group_58" transform="translate(0 52.897)">
	<path id="Path_107" class="st0" d="M219.875,5.5h-1.1v3.6h1.1c1.8,0,2.3-0.9,2.3-1.9C222.075,6.1,221.475,5.5,219.875,5.5z"/>
	<path id="Path_108" class="st0" d="M122.375,10.7h3.6l-1.9-4.2L122.375,10.7z"/>
	<path id="Path_109" class="st0" d="M147.175,5.5h-1.1v3.6h1.1c1.8,0,2.3-0.9,2.3-1.9C149.375,6.1,148.775,5.5,147.175,5.5z"/>
	<path id="Path_110" class="st0" d="M14.975,0l-14.6,19.8h238.4l5.1-19.8H14.975z M128.175,15.6l-1.5-3.4h-4.9l-1.5,3.4h-1.7l5-11.6
		h1.2l5.1,11.6H128.175z M141.175,14.8c-1.4,0.6-2.9,1-4.4,0.9c-3.2,0.2-5.9-2.3-6.1-5.5c0-0.1,0-0.2,0-0.4c0-3.3,2.6-6,5.9-6
		c0.1,0,0.2,0,0.2,0c1.4,0,2.8,0.3,4.1,1v1.7c-1.3-0.7-2.7-1.1-4.1-1.1c-2.4,0-4.4,1.9-4.4,4.3s1.9,4.4,4.3,4.4c0.1,0,0.2,0,0.3,0
		c0.9,0,1.7-0.2,2.5-0.5v-2.4h-2.1V9.9h3.9L141.175,14.8z M151.375,15.6l-1.5-2.4c-1.5-2.4-2.2-2.6-3.1-2.6h-0.7v5h-1.7V4.1h2.9
		c2.3,0,3.8,1.2,3.8,3.2c0,1.3-0.7,2.4-1.9,2.8c1.1,0.9,2,1.9,2.6,3.2c0.5,0.8,0.8,1.2,1.6,2.3H151.375z M157.075,15.6h-1.7V4.1h1.7
		V15.6z M170.475,14.7c-1.3,0.7-2.7,1-4.2,1c-3.2,0.2-6-2.3-6.2-5.5c0-0.1,0-0.1,0-0.2c0-3.3,2.6-6,5.9-6.1c0.1,0,0.3,0,0.4,0
		c1.4,0,2.7,0.4,3.9,0.9v1.8c-1.2-0.8-2.6-1.2-4-1.2c-2.4-0.1-4.5,1.7-4.6,4.2c0,0.1,0,0.2,0,0.2c0,2.4,1.8,4.3,4.2,4.4
		c0.1,0,0.3,0,0.4,0c1.4,0,2.8-0.5,4-1.3L170.475,14.7z M182.975,11.1c0,2.8-1.7,4.7-5.1,4.7c-2.4,0-4.8-1.4-4.8-4.5V4.1h1.7v6.8
		c0,1.3,0.2,1.8,0.7,2.4c0.7,0.7,1.6,1,2.5,1c1,0.1,2-0.3,2.7-0.9c0.6-0.7,0.8-1.6,0.7-2.5V4.1h1.7L182.975,11.1z M192.875,15.6
		h-6.8V4.1h1.7v10h5.2v1.5H192.875z M201.975,5.6h-4v10h-1.7v-10h-4V4.1h9.6L201.975,5.6z M213.975,11.1c0,2.8-1.7,4.7-5.1,4.7
		c-2.4,0-4.8-1.4-4.8-4.5V4.1h1.7v6.8c0,1.3,0.2,1.8,0.7,2.4c0.7,0.7,1.6,1,2.5,1c1,0.1,2-0.3,2.7-0.9c0.6-0.7,0.8-1.6,0.7-2.5V4.1
		h1.7L213.975,11.1z M224.075,15.6l-1.5-2.4c-1.5-2.4-2.2-2.6-3.1-2.6h-0.7v5h-1.7V4.1h2.9c2.3,0,3.8,1.2,3.8,3.2
		c0,1.3-0.7,2.4-1.9,2.8c1.1,0.9,2,1.9,2.6,3.2c0.5,0.8,0.8,1.2,1.6,2.3H224.075z M234.875,15.6h-6.7V4.1h6.5v1.5h-4.9V9h4.7v1.5
		h-4.7v3.6h5L234.875,15.6z"/>
</g>
</svg>
