<?xml version="1.0" encoding="utf-8"?>
<!-- Generator: Adobe Illustrator 24.1.2, SVG Export Plug-In . SVG Version: 6.00 Build 0)  -->
<svg version="1.1" id="Layer_1" xmlns="http://www.w3.org/2000/svg" xmlns:xlink="http://www.w3.org/1999/xlink" x="0px" y="0px"
	 viewBox="0 0 143.7 86.6" style="enable-background:new 0 0 143.7 86.6;" xml:space="preserve">
<style type="text/css">
	.st0{clip-path:url(#SVGID_2_);fill:#FFFFFF;}
	.st1{fill:#FFFFFF;}
	.st2{clip-path:url(#SVGID_4_);fill:#FFFFFF;}
	.st3{clip-path:url(#SVGID_6_);fill:#FFFFFF;}
	.st4{clip-path:url(#SVGID_8_);fill:#FFFFFF;}
	.st5{clip-path:url(#SVGID_10_);fill:#FFFFFF;}
</style>
<g>
	<defs>
		<rect id="SVGID_1_" x="5.2" y="10.9" width="133.3" height="63.9"/>
	</defs>
	<clipPath id="SVGID_2_">
		<use xlink:href="#SVGID_1_"  style="overflow:visible;"/>
	</clipPath>
	<path class="st0" d="M6.2,13.6c-0.2,0.5-0.3,1.1-0.3,1.7l0,17.9c0,0.6,0.1,1.1,0.3,1.7c0.2,0.5,0.5,1,0.9,1.4
		c0.4,0.4,0.8,0.7,1.4,0.9c0.5,0.2,1.1,0.3,1.7,0.3l1.5,0c0.6,0,1.1-0.1,1.7-0.3c0.5-0.2,1-0.5,1.4-0.9c0.4-0.4,0.7-0.8,0.9-1.4
		c0.2-0.5,0.3-1.1,0.3-1.7l0-4.9c0,0,0-0.1,0-0.1c0,0,0,0,0,0l-3.3-0.4l0,5.2c0,0.4-0.2,0.8-0.5,1.1c-0.3,0.3-0.7,0.5-1.1,0.5
		l-0.3,0c-0.4,0-0.8-0.2-1.1-0.5c-0.3-0.3-0.5-0.7-0.5-1.1l0-17.6c0-0.4,0.2-0.8,0.5-1.1c0.3-0.3,0.7-0.5,1.1-0.5H11
		c0.4,0,0.8,0.2,1.1,0.5c0.3,0.3,0.5,0.7,0.5,1.1l0,3.5l3.3-0.5c0,0,0,0,0,0c0,0,0,0,0-0.1l0-3.1c0-0.6-0.1-1.1-0.3-1.7
		c-0.2-0.5-0.5-1-0.9-1.4c-0.4-0.4-0.8-0.7-1.4-0.9c-0.5-0.2-1.1-0.3-1.7-0.3l-1.5,0c-0.6,0-1.1,0.1-1.7,0.3c-0.5,0.2-1,0.5-1.4,0.9
		C6.7,12.6,6.4,13,6.2,13.6"/>
</g>
<polygon class="st1" points="19,37.2 22.3,37.2 22.3,25.5 26.2,25.5 26.1,37.2 29.4,37.2 29.5,11.2 26.2,11.2 26.2,22.2 22.3,22.2 
	22.4,11.2 19.1,11.2 "/>
<rect x="21.8" y="22.6" transform="matrix(2.429634e-03 -1 1 2.429634e-03 10.4512 58.9208)" class="st1" width="25.9" height="3.3"/>
<g>
	<defs>
		<rect id="SVGID_3_" x="5.2" y="10.9" width="133.3" height="63.9"/>
	</defs>
	<clipPath id="SVGID_4_">
		<use xlink:href="#SVGID_3_"  style="overflow:visible;"/>
	</clipPath>
	<path class="st2" d="M49.5,34.9c0.2-0.5,0.3-1.1,0.3-1.7l0-4.9c0,0,0-0.1,0-0.1c0,0,0,0,0,0l-3.3-0.4l0,5.2c0,0.4-0.2,0.8-0.5,1.1
		c-0.3,0.3-0.7,0.5-1.1,0.5l-0.3,0c-0.4,0-0.8-0.2-1.1-0.5c-0.3-0.3-0.5-0.7-0.5-1.1l0-17.6c0-0.4,0.2-0.8,0.5-1.1
		c0.3-0.3,0.7-0.5,1.1-0.5H45c0.4,0,0.8,0.2,1.1,0.5c0.3,0.3,0.5,0.7,0.5,1.1l0,3.5l3.3-0.5c0,0,0,0,0,0c0,0,0,0,0-0.1l0-3.1
		c0-0.6-0.1-1.1-0.3-1.7c-0.2-0.5-0.5-1-0.9-1.4c-0.4-0.4-0.8-0.7-1.4-0.9c-0.5-0.2-1.1-0.3-1.7-0.3l-1.5,0c-0.6,0-1.1,0.1-1.7,0.3
		c-0.5,0.2-1,0.5-1.4,0.9c-0.4,0.4-0.7,0.8-0.9,1.4c-0.2,0.5-0.3,1.1-0.3,1.7l0,17.9c0,0.6,0.1,1.1,0.3,1.7c0.2,0.5,0.5,1,0.9,1.4
		c0.4,0.4,0.8,0.7,1.4,0.9c0.5,0.2,1.1,0.3,1.7,0.3l1.5,0c0.6,0,1.1-0.1,1.7-0.3c0.5-0.2,1-0.5,1.4-0.9C49,35.8,49.3,35.4,49.5,34.9
		"/>
	<path class="st2" d="M55.3,29.4l1.3-13.2l0.7,0l1.2,13.2L55.3,29.4z M58.9,37.2l3.3,0l-2.9-25.9l-5.1,0h0c0,0,0,0,0,0l-2.9,25.9
		l3.3,0c0,0,0,0,0,0l0.4-4.7l3.6,0L58.9,37.2z"/>
	<path class="st2" d="M73.7,34.9c0.2-0.5,0.3-1.1,0.3-1.7l0-10.9l-4.4,0l0,3.2l1.1,0l0,7.5c0,0.4-0.2,0.8-0.5,1.1
		c-0.3,0.3-0.7,0.5-1.1,0.5l-0.3,0c-0.4,0-0.8-0.2-1.1-0.5c-0.3-0.3-0.5-0.7-0.5-1.1l0-17.6c0-0.4,0.2-0.8,0.5-1.1
		c0.3-0.3,0.7-0.5,1.1-0.5h0.3c0.4,0,0.8,0.2,1.1,0.5c0.3,0.3,0.5,0.7,0.5,1.1l0,2.3l3.2-1.2c0.1,0,0.1,0,0.1,0c0,0,0,0,0-0.1l0-1.2
		c0-0.6-0.1-1.1-0.3-1.7c-0.2-0.5-0.5-1-0.9-1.4c-0.4-0.4-0.8-0.7-1.4-0.9C71,11.1,70.4,11,69.8,11l-1.5,0c-0.6,0-1.1,0.1-1.7,0.3
		c-0.5,0.2-1,0.5-1.4,0.9c-0.4,0.4-0.7,0.8-0.9,1.4c-0.2,0.5-0.3,1.1-0.3,1.7l0,17.9c0,0.6,0.1,1.1,0.3,1.7c0.2,0.5,0.5,1,0.9,1.4
		c0.4,0.4,0.8,0.7,1.4,0.9c0.5,0.2,1.1,0.3,1.7,0.3l1.5,0c0.6,0,1.1-0.1,1.7-0.3c0.5-0.2,1-0.5,1.4-0.9
		C73.2,35.9,73.5,35.4,73.7,34.9"/>
	<path class="st2" d="M80.2,15.5c0-0.4,0.2-0.8,0.5-1.1c0.3-0.3,0.7-0.5,1.1-0.5H82c0.4,0,0.8,0.2,1.1,0.5c0.3,0.3,0.5,0.7,0.5,1.1
		l0,17.6c0,0.4-0.2,0.8-0.5,1.1c-0.3,0.3-0.7,0.5-1.1,0.5l-0.3,0c-0.4,0-0.8-0.2-1.1-0.5c-0.3-0.3-0.5-0.7-0.5-1.1L80.2,15.5z
		 M77.2,13.7c-0.2,0.5-0.3,1.1-0.3,1.7l0,17.9c0,0.6,0.1,1.1,0.3,1.7c0.2,0.5,0.5,1,0.9,1.4c0.4,0.4,0.8,0.7,1.4,0.9
		c0.5,0.2,1.1,0.3,1.7,0.3l1.5,0c0.6,0,1.1-0.1,1.7-0.3c0.5-0.2,1-0.5,1.4-0.9c0.4-0.4,0.7-0.8,0.9-1.4c0.2-0.5,0.3-1.1,0.3-1.7
		l0-17.9c0-0.6-0.1-1.1-0.3-1.7c-0.2-0.5-0.5-1-0.9-1.4c-0.4-0.4-0.8-0.7-1.4-0.9c-0.5-0.2-1.1-0.3-1.7-0.3l-1.5,0
		c-0.6,0-1.1,0.1-1.7,0.3c-0.5,0.2-1,0.5-1.4,0.9C77.7,12.7,77.4,13.1,77.2,13.7"/>
	<path class="st2" d="M103.7,29.6l1.3-13.3l0.7,0l1.2,13.3L103.7,29.6z M107.4,37.5l3.3,0l-2.9-26.1l-5.2,0h0c0,0,0,0,0,0l-3,26.1
		l3.3,0c0,0,0,0,0,0l0.4-4.8l3.6,0L107.4,37.5z"/>
</g>
<polygon class="st1" points="89.9,37.4 98.6,37.5 98.6,34.1 93.2,34.1 93.3,11.3 90,11.3 "/>
<g>
	<defs>
		<rect id="SVGID_5_" x="5.2" y="10.9" width="133.3" height="63.9"/>
	</defs>
	<clipPath id="SVGID_6_">
		<use xlink:href="#SVGID_5_"  style="overflow:visible;"/>
	</clipPath>
	<path class="st3" d="M121.7,37.4C121.7,37.4,121.7,37.4,121.7,37.4c0.1,0.1,0.1,0.1,0.1,0.1l2.4,0l0-26.1l-3.3,0l0,16.4l-5.3-16.3
		c0,0,0,0-0.1-0.1c0,0-0.1,0-0.1,0l-2.5,0l0,26.1l3.3,0l0-16.9L121.7,37.4C121.7,37.4,121.7,37.4,121.7,37.4"/>
	<path class="st3" d="M134.6,33c0,0.4-0.2,0.8-0.5,1.1c-0.3,0.3-0.7,0.5-1.1,0.5l-1.9,0l0-20.3l1.9,0c0.4,0,0.8,0.2,1.1,0.5
		c0.3,0.3,0.5,0.7,0.5,1.1L134.6,33z M135.3,11.7c-0.5-0.2-1.1-0.3-1.7-0.3l-5.8,0l0,26.1l5.8,0c0.6,0,1.1-0.1,1.7-0.3
		c0.5-0.2,1-0.5,1.4-0.9c0.4-0.4,0.7-0.8,0.9-1.4c0.2-0.5,0.3-1.1,0.3-1.7l0-17.5c0-0.6-0.1-1.1-0.3-1.7c-0.2-0.5-0.5-1-0.9-1.4
		C136.3,12.3,135.8,11.9,135.3,11.7"/>
	<path class="st3" d="M40.5,47.8h-1.6v5.4h1.6c1.7,0,2.8-1.2,2.8-2.7v0C43.3,49,42.2,47.8,40.5,47.8"/>
	<path class="st3" d="M55.7,48.5L55.7,48.5c0-0.6-0.4-1-1-1c-0.6,0-1,0.4-1,1v0c0,0.4,0.2,0.7,0.7,1.3
		C55.3,49.5,55.7,49.1,55.7,48.5"/>
	<path class="st3" d="M70.5,48.9L70.5,48.9c0-0.7-0.5-1.1-1.5-1.1H67v2.4h2C69.9,50.1,70.5,49.7,70.5,48.9"/>
	<path class="st3" d="M106.1,49.1L106.1,49.1c0-0.9-0.6-1.4-1.7-1.4h-2.1v2.8h2.1C105.4,50.5,106.1,50,106.1,49.1"/>
	<path class="st3" d="M52.8,52L52.8,52c0,0.8,0.6,1.3,1.4,1.3c0.6,0,1.2-0.3,1.7-0.9l-1.8-1.9C53.2,50.9,52.8,51.4,52.8,52"/>
	<path class="st3" d="M31,47.6c-1.6,0-2.7,1.2-2.7,2.8v0c0,1.6,1.1,2.8,2.7,2.8c1.6,0,2.7-1.2,2.7-2.8v0
		C33.7,48.9,32.6,47.6,31,47.6"/>
	<path class="st3" d="M20.8,47.6c-1.6,0-2.7,1.2-2.7,2.8v0c0,1.6,1.1,2.8,2.7,2.8c1.6,0,2.7-1.2,2.7-2.8v0
		C23.5,48.9,22.3,47.6,20.8,47.6"/>
	<path class="st3" d="M134.3,53.9h-5v-6.8h4.9v0.7h-4.2v2.3h3.7v0.7h-3.7v2.4h4.2V53.9z M125.6,53c-0.6,0.6-1.6,1-2.7,1
		c-2.1,0-3.5-1.6-3.5-3.5v0c0-1.9,1.4-3.5,3.4-3.5c1.2,0,1.9,0.3,2.5,0.9l-0.5,0.6c-0.5-0.5-1.1-0.8-2.1-0.8c-1.5,0-2.6,1.3-2.6,2.8
		v0c0,1.6,1,2.8,2.7,2.8c0.8,0,1.5-0.3,2-0.7v-1.7h-2.1v-0.7h2.8V53z M116,53.9l-0.8-1.8h-3.7l-0.8,1.8h-0.8L113,47h0.7l3.1,6.9H116
		z M106.2,53.9l-2-2.7h-2v2.7h-0.8v-6.8h2.9c0.8,0,1.5,0.3,1.9,0.7c0.3,0.3,0.5,0.8,0.5,1.3v0c0,1.1-0.8,1.8-1.9,2l2.1,2.8H106.2z
		 M98,53.9h-5v-6.8h4.9v0.7h-4.2v2.3h3.7v0.7h-3.7v2.4H98V53.9z M86.7,53.9H86l-2.9-6.9H84l2.4,5.9l2.4-5.9h0.8L86.7,53.9z
		 M80.2,53.9h-5v-6.8h4.9v0.7H76v2.3h3.7v0.7H76v2.4h4.2V53.9z M71.7,52c0,1.2-1,1.9-2.5,1.9h-3v-6.8h2.9c0.8,0,1.4,0.2,1.8,0.6
		c0.3,0.3,0.4,0.7,0.4,1.1v0c0,0.9-0.5,1.3-1.1,1.6C71.1,50.6,71.7,51.1,71.7,52L71.7,52z M57.5,54l-1.1-1.1
		c-0.6,0.7-1.3,1.1-2.2,1.1C53,54,52,53.2,52,52.1v0c0-0.9,0.6-1.6,1.6-2c-0.5-0.5-0.7-1-0.7-1.5v0c0-0.9,0.7-1.6,1.8-1.6
		c1,0,1.7,0.7,1.7,1.5v0c0,0.9-0.6,1.4-1.6,1.8l1.6,1.6c0.3-0.4,0.6-1,0.8-1.5l0.6,0.3c-0.3,0.6-0.6,1.2-1,1.7l1.2,1.2L57.5,54z
		 M44.1,50.5c0,1.9-1.5,3.4-3.6,3.4h-2.4v-6.8h2.4C42.6,47.1,44.1,48.5,44.1,50.5L44.1,50.5z M34.5,50.5c0,1.9-1.4,3.5-3.5,3.5
		c-2.1,0-3.5-1.6-3.5-3.5v0c0-1.9,1.4-3.5,3.5-3.5S34.5,48.6,34.5,50.5L34.5,50.5z M24.3,50.5c0,1.9-1.4,3.5-3.5,3.5
		s-3.5-1.6-3.5-3.5v0c0-1.9,1.4-3.5,3.5-3.5C22.9,46.9,24.3,48.6,24.3,50.5L24.3,50.5z M14.3,47.8h-4.1v2.4h3.7v0.7h-3.7v3H9.4v-6.8
		h4.9V47.8z M5.2,42.8l0,15.1l133.3,0.2l0-15.1L5.2,42.8z"/>
</g>
<polygon class="st1" points="111.8,51.4 114.9,51.4 113.3,47.9 "/>
<g>
	<defs>
		<rect id="SVGID_7_" x="5.2" y="10.9" width="133.3" height="63.9"/>
	</defs>
	<clipPath id="SVGID_8_">
		<use xlink:href="#SVGID_7_"  style="overflow:visible;"/>
	</clipPath>
	<path class="st4" d="M69.1,50.8H67v2.4h2.3c1,0,1.7-0.5,1.7-1.2v0C70.9,51.2,70.3,50.8,69.1,50.8"/>
</g>
<polygon class="st1" points="13.3,63.6 13.3,70.4 8.1,63.6 5.8,63.6 5.8,74.7 8.2,74.7 8.2,67.6 13.6,74.7 15.7,74.7 15.7,63.6 "/>
<polygon class="st1" points="26.1,63.6 26.1,74.7 34.5,74.7 34.5,72.5 28.5,72.5 28.5,70.2 33.7,70.2 33.7,68 28.5,68 28.5,65.8 
	34.5,65.8 34.5,63.6 "/>
<polygon class="st1" points="43.7,63.6 43.7,65.8 47,65.8 47,74.7 49.5,74.7 49.5,65.8 52.9,65.8 52.9,63.6 "/>
<polygon class="st1" points="69,63.6 66.5,71.1 64.2,63.6 61.6,63.6 65.4,74.8 67.5,74.8 70,67.5 72.5,74.8 74.7,74.8 78.5,63.6 
	75.9,63.6 73.6,71.1 71.1,63.6 "/>
<g>
	<defs>
		<rect id="SVGID_9_" x="5.2" y="10.9" width="133.3" height="63.9"/>
	</defs>
	<clipPath id="SVGID_10_">
		<use xlink:href="#SVGID_9_"  style="overflow:visible;"/>
	</clipPath>
	<path class="st5" d="M96.1,69.2L96.1,69.2c0-1.9-1.4-3.5-3.4-3.5c-2,0-3.3,1.6-3.3,3.5v0c0,1.9,1.4,3.5,3.4,3.5
		C94.8,72.6,96.1,71.1,96.1,69.2 M86.9,69.2L86.9,69.2c0-3.2,2.5-5.8,5.9-5.8c3.4,0,5.9,2.6,5.9,5.7v0c0,3.2-2.5,5.7-5.9,5.7
		C89.3,74.9,86.9,72.3,86.9,69.2"/>
	<path class="st5" d="M113.5,69c1.2,0,1.9-0.6,1.9-1.6v0c0-1-0.7-1.6-1.9-1.6H111V69H113.5z M108.6,63.6h5.1c1.4,0,2.5,0.4,3.2,1.1
		c0.6,0.6,1,1.5,1,2.5v0c0,1.8-1,2.9-2.4,3.4l2.7,4h-2.9l-2.4-3.6H111v3.6h-2.4V63.6z"/>
</g>
<polygon class="st1" points="134.7,63.6 130.2,68.4 130.2,63.6 127.8,63.6 127.8,74.7 130.2,74.7 130.2,71.3 131.5,70 135,74.7 
	137.9,74.7 133.2,68.3 137.7,63.6 "/>
</svg>
