<?xml version="1.0" encoding="utf-8"?>
<!-- Generator: Adobe Illustrator 24.1.2, SVG Export Plug-In . SVG Version: 6.00 Build 0)  -->
<svg version="1.1" id="Layer_1" xmlns="http://www.w3.org/2000/svg" xmlns:xlink="http://www.w3.org/1999/xlink" x="0px" y="0px"
	 viewBox="0 0 338.9 153.3" style="enable-background:new 0 0 338.9 153.3;" xml:space="preserve">
<style type="text/css">
	.st0{fill:#FFFFFF;}
</style>
<g>
	<g>
		<path class="st0" d="M165.7,55.8L190,66.3l-24.3,10.5l-24.3-10.5L165.7,55.8 M165.7,51.8l-33.3,14.4l33.3,14.4L199,66.3
			L165.7,51.8L165.7,51.8z"/>
		<polygon class="st0" points="165.7,34.9 165.7,80.7 132.3,66.3 132.3,20.4 		"/>
		<path class="st0" d="M177.7,5.5l26.1,11.3v38l-26.1-11.3V5.5 M174.1,0v45.9l33.3,14.5V14.5L174.1,0L174.1,0z"/>
		<polygon class="st0" points="140.7,14.5 174.1,0 207.4,14.5 174.1,28.9 		"/>
	</g>
	<g>
		<g>
			<path class="st0" d="M43.5,140.2v12.4H0v-9.7l21.8-25.1H0.6v-12.3h42v9.7l-21.8,25.1H43.5z"/>
			<path class="st0" d="M60.3,150.2c-4.1-2.1-7.2-5-9.5-8.7c-2.3-3.7-3.4-7.9-3.4-12.6c0-4.6,1.1-8.8,3.4-12.5
				c2.3-3.7,5.5-6.6,9.5-8.7c4-2.1,8.6-3.1,13.7-3.1c5.1,0,9.7,1,13.7,3.1c4.1,2.1,7.2,4.9,9.5,8.6c2.3,3.7,3.4,7.9,3.4,12.6
				c0,4.7-1.1,8.9-3.4,12.6c-2.3,3.7-5.4,6.6-9.5,8.7c-4.1,2.1-8.6,3.1-13.7,3.1C68.9,153.3,64.4,152.3,60.3,150.2z M81.1,137.2
				c1.9-2,2.8-4.8,2.8-8.3c0-3.5-0.9-6.2-2.8-8.2c-1.9-2-4.2-3-7.1-3c-2.9,0-5.3,1-7.1,3c-1.9,2-2.8,4.7-2.8,8.2
				c0,3.5,0.9,6.3,2.8,8.3c1.9,2,4.2,3,7.1,3C76.9,140.2,79.2,139.2,81.1,137.2z"/>
			<path class="st0" d="M130.6,106.2c2.7-1.1,5.8-1.6,9.3-1.6v14.9c-1.5-0.2-2.8-0.3-3.7-0.3c-3.5,0-6.3,1-8.3,2.9
				c-2,1.9-3,4.8-3,8.8v21.7h-16.5v-47.2H124v5.7C125.7,108.9,127.9,107.3,130.6,106.2z"/>
			<path class="st0" d="M156.2,150.2c-4.1-2.1-7.2-5-9.5-8.7c-2.3-3.7-3.4-7.9-3.4-12.6c0-4.6,1.1-8.8,3.4-12.5
				c2.3-3.7,5.5-6.6,9.5-8.7c4-2.1,8.6-3.1,13.7-3.1c5.1,0,9.7,1,13.7,3.1c4.1,2.1,7.2,4.9,9.5,8.6c2.3,3.7,3.4,7.9,3.4,12.6
				c0,4.7-1.1,8.9-3.4,12.6c-2.3,3.7-5.4,6.6-9.5,8.7c-4.1,2.1-8.6,3.1-13.7,3.1C164.8,153.3,160.3,152.3,156.2,150.2z M177,137.2
				c1.9-2,2.8-4.8,2.8-8.3c0-3.5-0.9-6.2-2.8-8.2c-1.9-2-4.2-3-7.1-3c-2.9,0-5.3,1-7.1,3c-1.9,2-2.8,4.7-2.8,8.2
				c0,3.5,0.9,6.3,2.8,8.3c1.9,2,4.2,3,7.1,3C172.8,140.2,175.1,139.2,177,137.2z"/>
			<g>
				<path class="st0" d="M199.4,151.7c-1.1-1.1-1.7-2.5-1.7-4.2c0-1.7,0.6-3.1,1.7-4.2c1.1-1.1,2.5-1.6,4.2-1.6
					c1.7,0,3.1,0.5,4.2,1.6c1.1,1.1,1.6,2.4,1.6,4.2c0,1.7-0.6,3.1-1.7,4.2c-1.1,1.1-2.5,1.6-4.2,1.6
					C201.9,153.3,200.5,152.8,199.4,151.7z"/>
				<path class="st0" d="M221.9,151.5c-2.4-1.2-4.3-2.9-5.7-5.1c-1.4-2.2-2-4.7-2-7.4s0.7-5.2,2-7.4c1.4-2.2,3.2-3.9,5.7-5.1
					c2.4-1.2,5.2-1.8,8.3-1.8c3.1,0,5.9,0.7,8.2,2c2.3,1.4,3.9,3.2,4.9,5.6l-7.5,3.8c-1.3-2.5-3.1-3.7-5.5-3.7
					c-1.7,0-3.2,0.6-4.3,1.7c-1.1,1.2-1.7,2.8-1.7,4.8c0,2.1,0.6,3.7,1.7,4.9c1.1,1.2,2.6,1.8,4.3,1.8c2.4,0,4.3-1.2,5.5-3.7
					l7.5,3.8c-1,2.4-2.6,4.3-4.9,5.6c-2.3,1.4-5,2-8.2,2C227.1,153.3,224.3,152.7,221.9,151.5z"/>
				<path class="st0" d="M252.5,151.5c-2.4-1.2-4.3-2.9-5.6-5.1c-1.4-2.2-2-4.7-2-7.4c0-2.7,0.7-5.2,2-7.4c1.4-2.2,3.2-3.9,5.6-5.1
					c2.4-1.2,5.1-1.8,8.1-1.8c3,0,5.7,0.6,8.1,1.8c2.4,1.2,4.3,2.9,5.6,5.1c1.3,2.2,2,4.6,2,7.4s-0.7,5.2-2,7.4
					c-1.3,2.2-3.2,3.9-5.6,5.1c-2.4,1.2-5.1,1.8-8.1,1.8C257.5,153.3,254.8,152.7,252.5,151.5z M264.7,143.8
					c1.1-1.2,1.6-2.8,1.6-4.9c0-2.1-0.5-3.7-1.6-4.8c-1.1-1.2-2.5-1.7-4.2-1.7c-1.7,0-3.1,0.6-4.2,1.7c-1.1,1.2-1.6,2.8-1.6,4.8
					c0,2.1,0.5,3.7,1.6,4.9c1.1,1.2,2.5,1.8,4.2,1.8C262.2,145.6,263.6,145,264.7,143.8z"/>
				<path class="st0" d="M325.1,127.7c2,2.1,3.1,5.1,3.1,9.3v15.9h-9.7v-14.3c0-1.9-0.4-3.4-1.1-4.3c-0.7-0.9-1.8-1.4-3.1-1.4
					c-1.5,0-2.6,0.5-3.5,1.5c-0.9,1-1.3,2.6-1.3,4.7v13.8h-9.7v-14.3c0-3.8-1.4-5.7-4.2-5.7c-1.5,0-2.7,0.5-3.6,1.5
					c-0.9,1-1.3,2.6-1.3,4.7v13.8h-9.7v-27.8h9.3v2.9c1-1.1,2.2-2,3.7-2.5c1.4-0.6,3-0.8,4.6-0.8c1.9,0,3.7,0.4,5.2,1.1
					c1.5,0.7,2.8,1.8,3.7,3.3c1.1-1.4,2.5-2.5,4.2-3.2c1.7-0.8,3.5-1.1,5.5-1.1C320.3,124.6,323.1,125.6,325.1,127.7z"/>
			</g>
		</g>
		<g>
			<path class="st0" d="M330.9,128.8c-0.3-0.1-0.5-0.2-0.7-0.4l0.3-0.6c0.2,0.1,0.4,0.2,0.6,0.3s0.5,0.1,0.8,0.1
				c0.3,0,0.5,0,0.7-0.1c0.2-0.1,0.2-0.2,0.2-0.4c0-0.1,0-0.2-0.1-0.3s-0.2-0.1-0.3-0.2c-0.1,0-0.3-0.1-0.5-0.2
				c-0.3-0.1-0.6-0.2-0.8-0.2c-0.2-0.1-0.4-0.2-0.5-0.4c-0.1-0.2-0.2-0.4-0.2-0.7c0-0.2,0.1-0.4,0.2-0.6c0.1-0.2,0.3-0.3,0.6-0.5
				s0.6-0.2,0.9-0.2c0.3,0,0.5,0,0.8,0.1c0.2,0.1,0.5,0.2,0.6,0.3l-0.2,0.6c-0.2-0.1-0.4-0.2-0.6-0.2c-0.2-0.1-0.4-0.1-0.6-0.1
				c-0.3,0-0.5,0.1-0.7,0.2c-0.1,0.1-0.2,0.2-0.2,0.4c0,0.1,0,0.2,0.1,0.3c0.1,0.1,0.2,0.1,0.3,0.2c0.1,0,0.3,0.1,0.5,0.1
				c0.3,0.1,0.6,0.1,0.8,0.2c0.2,0.1,0.4,0.2,0.5,0.4s0.2,0.4,0.2,0.6c0,0.2-0.1,0.4-0.2,0.6c-0.1,0.2-0.3,0.3-0.6,0.5
				c-0.3,0.1-0.6,0.2-0.9,0.2C331.5,128.9,331.2,128.9,330.9,128.8z"/>
			<path class="st0" d="M338.2,128.9l0-2.8l-1.4,2.3h-0.3l-1.4-2.3v2.7h-0.7v-4.2h0.6l1.7,2.8l1.6-2.8h0.6l0,4.2H338.2z"/>
		</g>
	</g>
</g>
</svg>
