<?xml version="1.0" encoding="utf-8"?>
<svg id="a7434bac-50c0-459c-aa7a-cc4a89c624e1" data-name="Layer 1" xmlns="http://www.w3.org/2000/svg" viewBox="0 0 194.48 172.34">
  <title>Corteva_206x209_White</title>
  <g>
    <path d="M54.36,64.79l45.2-45.2A47.93,47.93,0,0,0,54.36,64.79Z" transform="translate(-7.41 -19.59)" fill="#fff"/>
    <path d="M150.17,67.46c0-.21,0-.42,0-.62H111.55l-8.75-8.75h46.45A47.21,47.21,0,0,0,145,45.86H103.75l8.75-8.75h26.84A48,48,0,0,0,124.57,25l-.31-.16a47.56,47.56,0,0,0-12.42-4.41L55.25,77.06A47,47,0,0,0,59.81,89.8,47.94,47.94,0,0,0,99,115.28L66.64,83l6.61-6.61,38.16,38.15a47.72,47.72,0,0,0,12.83-4.46L81.9,67.71l6.61-6.61,43.73,43.73A47.87,47.87,0,0,0,140.73,96l-16.95-17h25A47.82,47.82,0,0,0,150.17,67.46Z" transform="translate(-7.41 -19.59)" fill="#fff"/>
  </g>
  <g>
    <g>
      <path d="M196,140.06v2.85h-.87v-2.85h-1v-.75H197v.75Z" transform="translate(-7.41 -19.59)" fill="#fff"/>
      <path d="M201,142.91l0-2.54h0l-.94,2.54h-.61l-.91-2.54h0l0,2.54h-.82v-3.6H199l.82,2.31h0l.79-2.31h1.25v3.6Z" transform="translate(-7.41 -19.59)" fill="#fff"/>
    </g>
    <path d="M7.41,151.33a12.94,12.94,0,0,1,1-5.23,12,12,0,0,1,2.79-4,12.25,12.25,0,0,1,4.15-2.57,14.64,14.64,0,0,1,5.11-.89,15.49,15.49,0,0,1,5.26.89A12.19,12.19,0,0,1,29.87,142l-4.95,6a4.55,4.55,0,0,0-1.7-1.34,5.58,5.58,0,0,0-2.27-.45,4.94,4.94,0,0,0-1.9.35,4.41,4.41,0,0,0-1.55,1,4.67,4.67,0,0,0-1,1.64,6,6,0,0,0-.38,2.16,5.45,5.45,0,0,0,.39,2.12,5,5,0,0,0,1.06,1.61,4.51,4.51,0,0,0,1.54,1,5.09,5.09,0,0,0,1.87.35,4.68,4.68,0,0,0,2.39-.58,5.15,5.15,0,0,0,1.58-1.35l4.95,5.94a12,12,0,0,1-4,2.59,14.16,14.16,0,0,1-5.4,1,14.21,14.21,0,0,1-5.11-.92,12.15,12.15,0,0,1-6.94-6.6A12.72,12.72,0,0,1,7.41,151.33Z" transform="translate(-7.41 -19.59)" fill="#fff"/>
    <path d="M34.24,151.19a12.85,12.85,0,0,1,1-5.21,11.45,11.45,0,0,1,2.8-3.95,12.3,12.3,0,0,1,4.22-2.51,16.37,16.37,0,0,1,10.59,0A12.58,12.58,0,0,1,57.11,142,11.5,11.5,0,0,1,59.93,146a12.85,12.85,0,0,1,1,5.21,13.19,13.19,0,0,1-1,5.26,11.84,11.84,0,0,1-2.82,4.06,12.6,12.6,0,0,1-4.24,2.59,15.7,15.7,0,0,1-10.59,0,12.32,12.32,0,0,1-4.22-2.59,11.8,11.8,0,0,1-2.8-4.06A13.19,13.19,0,0,1,34.24,151.19Zm8.58,0a6.25,6.25,0,0,0,.36,2.17,5.16,5.16,0,0,0,1,1.7,4.33,4.33,0,0,0,1.51,1.1,4.68,4.68,0,0,0,1.9.39,4.57,4.57,0,0,0,1.89-.39,4.52,4.52,0,0,0,1.51-1.1,5,5,0,0,0,1-1.7,6.25,6.25,0,0,0,.36-2.17,6,6,0,0,0-.36-2.12,4.62,4.62,0,0,0-1-1.63,4.72,4.72,0,0,0-3.4-1.41,4.85,4.85,0,0,0-1.9.38,4.55,4.55,0,0,0-1.51,1,4.73,4.73,0,0,0-1,1.63A6,6,0,0,0,42.82,151.19Z" transform="translate(-7.41 -19.59)" fill="#fff"/>
    <path d="M67.09,139.31H77.44a17.43,17.43,0,0,1,3.51.36,9,9,0,0,1,3.12,1.26,6.7,6.7,0,0,1,2.22,2.41,7.55,7.55,0,0,1,.85,3.78A6.78,6.78,0,0,1,83,153.6L89,163.34H79.76l-4.6-8.58h-.23v8.58H67.09Zm7.77,10.15h1.58a5.78,5.78,0,0,0,.89-.07,2.56,2.56,0,0,0,.91-.29,2,2,0,0,0,.71-.61,1.7,1.7,0,0,0,.29-1,1.88,1.88,0,0,0-.24-1,1.56,1.56,0,0,0-.61-.56,2.57,2.57,0,0,0-.8-.24c-.3,0-.57,0-.81,0H74.86Z" transform="translate(-7.41 -19.59)" fill="#fff"/>
    <path d="M107.67,163.34H99.59v-17.2h-5.9v-6.83h19.88v6.83h-5.9Z" transform="translate(-7.41 -19.59)" fill="#fff"/>
    <path d="M120.83,139.31h16.52V146h-8.92v2.07h8.38v6.28h-8.38v2.24h9.5v6.72h-17.1Z" transform="translate(-7.41 -19.59)" fill="#fff"/>
    <path d="M143.29,139.31h9.12l4,14.87h.13l3.8-14.87h9.13l-8.69,24h-9Z" transform="translate(-7.41 -19.59)" fill="#fff"/>
    <path d="M179.18,139.31h8.58l9.37,24h-8.79l-1.26-3.53h-7.63l-1.19,3.53h-8.55Zm4.17,8.39-2,5.94h3.9Z" transform="translate(-7.41 -19.59)" fill="#fff"/>
  </g>
  <g>
    <path d="M54.23,177v10.46H52V186a4.3,4.3,0,0,1-3.66,1.78,5.51,5.51,0,0,1,0-11A4.34,4.34,0,0,1,52,178.5V177ZM52,182.24a3.31,3.31,0,1,0-3.31,3.35A3.24,3.24,0,0,0,52,182.24Z" transform="translate(-7.41 -19.59)" fill="#fff"/>
    <path d="M68.25,177v10c0,3.37-2.64,4.94-5.38,4.94-2.3,0-4.08-.86-5-2.53l2-1.13a3,3,0,0,0,3,1.61c2,0,3.12-1.07,3.12-2.89v-1.28a4.27,4.27,0,0,1-3.64,1.83,5.4,5.4,0,0,1,0-10.8A4.26,4.26,0,0,1,66,178.56V177ZM66,182.14a3.33,3.33,0,1,0-3.32,3.28A3.22,3.22,0,0,0,66,182.14Z" transform="translate(-7.41 -19.59)" fill="#fff"/>
    <path d="M77.21,176.82v2.45A2.76,2.76,0,0,0,74,182.2v5.27H71.73V177H74v1.76A3.29,3.29,0,0,1,77.21,176.82Z" transform="translate(-7.41 -19.59)" fill="#fff"/>
    <path d="M79.41,174a1.45,1.45,0,1,1,1.44,1.44A1.45,1.45,0,0,1,79.41,174Zm.31,3H82v10.46H79.72Z" transform="translate(-7.41 -19.59)" fill="#fff"/>
    <path d="M93,184.52c0,2.09-1.82,3.22-4.08,3.22a4.38,4.38,0,0,1-4.27-2.44l1.95-1.13a2.29,2.29,0,0,0,2.32,1.5c1,0,1.78-.33,1.78-1.17,0-1.86-5.63-.82-5.63-4.56,0-2,1.7-3.2,3.83-3.2a4.2,4.2,0,0,1,3.87,2.17L90.9,180a2.05,2.05,0,0,0-2-1.19c-.81,0-1.53.35-1.53,1.11C87.4,181.8,93,180.65,93,184.52Z" transform="translate(-7.41 -19.59)" fill="#fff"/>
    <path d="M95,182.24a5.4,5.4,0,0,1,5.53-5.5,5.16,5.16,0,0,1,4.66,2.7l-1.94,1.13A2.92,2.92,0,0,0,100.5,179a3.29,3.29,0,0,0,0,6.57,3.08,3.08,0,0,0,2.79-1.61l1.94,1.1a5.22,5.22,0,0,1-4.7,2.72A5.41,5.41,0,0,1,95,182.24Z" transform="translate(-7.41 -19.59)" fill="#fff"/>
    <path d="M107.39,174a1.45,1.45,0,1,1,1.45,1.44A1.45,1.45,0,0,1,107.39,174Zm.32,3H110v10.46h-2.26Z" transform="translate(-7.41 -19.59)" fill="#fff"/>
    <path d="M118.55,185.67a3.21,3.21,0,0,0,2.7-1.29l1.86,1.08a5.26,5.26,0,0,1-4.58,2.28,5.5,5.5,0,1,1-.17-11,5.28,5.28,0,0,1,5.25,5.52,7,7,0,0,1-.08.94H115.2A3.14,3.14,0,0,0,118.55,185.67Zm2.78-4.31a2.9,2.9,0,0,0-3-2.57,3,3,0,0,0-3.16,2.57Z" transform="translate(-7.41 -19.59)" fill="#fff"/>
    <path d="M136,181.05v6.42H133.7v-6.19a2.18,2.18,0,0,0-2.34-2.43c-1.49,0-2.66.88-2.66,3v5.61h-2.26V177h2.26v1.34a3.59,3.59,0,0,1,3.24-1.61C134.29,176.74,136,178.33,136,181.05Z" transform="translate(-7.41 -19.59)" fill="#fff"/>
    <path d="M138.64,182.24a5.4,5.4,0,0,1,5.53-5.5,5.16,5.16,0,0,1,4.66,2.7l-1.94,1.13a2.92,2.92,0,0,0-2.75-1.61,3.29,3.29,0,0,0,0,6.57,3.08,3.08,0,0,0,2.79-1.61l1.94,1.1a5.22,5.22,0,0,1-4.7,2.72A5.41,5.41,0,0,1,138.64,182.24Z" transform="translate(-7.41 -19.59)" fill="#fff"/>
    <path d="M156.31,185.67a3.21,3.21,0,0,0,2.7-1.29l1.86,1.08a5.27,5.27,0,0,1-4.58,2.28,5.5,5.5,0,1,1-.17-11,5.28,5.28,0,0,1,5.25,5.52,7,7,0,0,1-.08.94H153A3.13,3.13,0,0,0,156.31,185.67Zm2.78-4.31a2.91,2.91,0,0,0-3-2.57,3,3,0,0,0-3.16,2.57Z" transform="translate(-7.41 -19.59)" fill="#fff"/>
  </g>
</svg>
