<svg xmlns="http://www.w3.org/2000/svg" width="162.766" height="41.483"><defs><clipPath id="a"><path data-name="Rectangle 24" fill="#fff" d="M0 0h162.766v41.483H0z"/></clipPath></defs><g data-name="Group 152"><g data-name="Group 150"><g data-name="Group 149" clip-path="url(#a)"><path data-name="Path 231" d="M20.742 0a20.742 20.742 0 1 0 20.742 20.742A20.742 20.742 0 0 0 20.742 0zm-8.89 26.261v.015H9.683v-1.4h1.677a1.791 1.791 0 0 0 0-3.563H9.683v-1.4h1.607a1.673 1.673 0 0 0 0-3.334H8.337v9.749H6.685V15.165h5.163v.006a2.915 2.915 0 0 1 2.624 2.837 2.838 2.838 0 0 1-1.518 2.485 3.047 3.047 0 0 1-1.1 5.768zm9.826 0v.015h-2.169v-1.4h1.677a1.791 1.791 0 0 0 0-3.563h-1.677v-1.4h1.605a1.673 1.673 0 0 0 0-3.334h-2.951v9.749h-1.649V15.165h5.16v.006a2.915 2.915 0 0 1 2.624 2.837 2.838 2.838 0 0 1-1.518 2.485 3.047 3.047 0 0 1-1.1 5.768zm13.121.058h-1.652l-5.055-7.8v7.8h-1.651V15.165h1.651l5.055 7.966v-7.966h1.651z" fill="#fff"/></g></g><path data-name="Path 232" d="M49.287 18.905h-1.935v-1.337h5.43v1.337h-1.935v5.037h-1.56z" fill="#fff"/><path data-name="Path 233" d="M53.386 17.567h1.56v2.55h2.318v-2.55h1.561v6.375h-1.561v-2.5h-2.318v2.5h-1.56z" fill="#fff"/><path data-name="Path 234" d="M60.14 17.567h3.994v1.337H61.7v1.159h1.944V21.4H61.7v1.2h2.559v1.338H60.14z" fill="#fff"/><g data-name="Group 151" fill="#fff"><path data-name="Path 235" d="M66.501 17.568h1.64l.8 3.985a3.678 3.678 0 0 1 .081.669h.018a3.619 3.619 0 0 1 .107-.669l.981-3.985h1.258l.953 3.985a3.559 3.559 0 0 1 .108.669h.015a3.705 3.705 0 0 1 .08-.669l.874-3.985h1.614l-1.614 6.375h-1.738l-.8-3.219a5.429 5.429 0 0 1-.125-.749h-.017a5.489 5.489 0 0 1-.125.749l-.8 3.219h-1.757z"/><path data-name="Path 236" d="M78.649 17.459a3.224 3.224 0 0 1 3.335 3.254 3.335 3.335 0 1 1-6.669 0 3.224 3.224 0 0 1 3.335-3.254m0 5.162a1.8 1.8 0 0 0 1.72-1.908 1.724 1.724 0 1 0-3.442 0 1.8 1.8 0 0 0 1.721 1.908"/><path data-name="Path 237" d="M82.858 17.568h2.22a3.3 3.3 0 0 1 1.239.152 1.853 1.853 0 0 1 1.177 1.854 1.942 1.942 0 0 1-.954 1.739v.018a3.717 3.717 0 0 1 .24.383l1.24 2.229h-1.739l-1.132-2.149h-.731v2.149h-1.56zm2.238 2.889a.729.729 0 0 0 .811-.784c0-.481-.177-.767-.962-.767h-.526v1.551z"/><path data-name="Path 238" d="M88.76 17.568h1.56v5.037h2.6v1.338h-4.163z"/><path data-name="Path 239" d="M93.599 17.568h2.264a3.189 3.189 0 1 1 0 6.375h-2.264zm2.2 5.037a1.853 1.853 0 0 0 0-3.7h-.642v3.7z"/><path data-name="Path 240" d="M100.112 17.434h1.355l-.794 2.273H99.63z"/><path data-name="Path 241" d="M102.482 21.958a2.64 2.64 0 0 0 1.524.66c.321 0 .669-.125.669-.508 0-.758-2.871-.731-2.871-2.692a2.046 2.046 0 0 1 2.255-1.952 2.892 2.892 0 0 1 2.051.722l-.659 1.275a2.435 2.435 0 0 0-1.409-.561c-.321 0-.678.142-.678.5 0 .8 2.871.66 2.871 2.675a2.029 2.029 0 0 1-2.247 1.979 3.291 3.291 0 0 1-2.327-.91z"/><path data-name="Path 242" d="M108.987 17.568h2.345c1.275 0 2.167.571 2.167 1.667a1.557 1.557 0 0 1-.74 1.358v.017a1.43 1.43 0 0 1 1 1.436c0 1.391-1.159 1.9-2.425 1.9h-2.345zm2.363 2.47a.539.539 0 0 0 .562-.588.519.519 0 0 0-.589-.544h-.776v1.132zm.134 2.567a.633.633 0 0 0 .678-.669.613.613 0 0 0-.669-.651h-.945v1.319z"/><path data-name="Path 243" d="M114.361 23.259c0-2.354 2.755-2.773 2.755-3.692a.63.63 0 0 0-.687-.633c-.606 0-.945.677-.945.677l-1.159-.776a2.459 2.459 0 0 1 2.247-1.373 1.989 1.989 0 0 1 2.176 1.952c0 1.989-2.567 2.372-2.612 3.192h2.71v1.337h-4.413a3.944 3.944 0 0 1-.071-.686"/><path data-name="Path 244" d="M119.858 17.568h2.345c1.275 0 2.166.571 2.166 1.667a1.557 1.557 0 0 1-.74 1.356v.017a1.43 1.43 0 0 1 1 1.436c0 1.391-1.159 1.9-2.425 1.9h-2.345zm2.363 2.47a.539.539 0 0 0 .562-.588.519.519 0 0 0-.589-.544h-.775v1.132zm.134 2.567a.633.633 0 0 0 .678-.669.613.613 0 0 0-.669-.651h-.944v1.319z"/><path data-name="Path 245" d="M130.606 22.605h-1.988l-.384 1.338h-1.6l2.166-6.375h1.64l2.167 6.375h-1.605zm-1-3.584s-.142.7-.259 1.1l-.365 1.239h1.258l-.357-1.239c-.115-.4-.259-1.1-.259-1.1z"/><path data-name="Path 246" d="M136.015 17.459a3.522 3.522 0 0 1 2.452.847l-.749 1.168a2.537 2.537 0 0 0-1.552-.589 1.7 1.7 0 0 0-1.881 1.8 1.809 1.809 0 0 0 1.827 1.935 2.184 2.184 0 0 0 1.293-.464v-.49h-.9v-1.329h2.282v3.6h-1.3v-.179c0-.134.008-.267.008-.267h-.017a2.643 2.643 0 0 1-1.677.553 3.123 3.123 0 0 1-3.13-3.308 3.227 3.227 0 0 1 3.344-3.281"/><path data-name="Path 247" d="M139.782 17.568h3.994v1.337h-2.434v1.159h1.944v1.337h-1.944v1.2h2.559v1.338h-4.119z"/><path data-name="Path 248" d="M144.844 17.568h1.579l1.765 2.978a11.376 11.376 0 0 1 .534 1.088h.018s-.071-.687-.071-1.088v-2.978h1.561v6.375h-1.57l-1.774-2.969a11.483 11.483 0 0 1-.535-1.087h-.018s.071.686.071 1.087v2.969h-1.56z"/><path data-name="Path 249" d="M154.45 17.459a3.322 3.322 0 0 1 2.389.9l-.722 1.177a2.673 2.673 0 0 0-1.6-.651 1.723 1.723 0 0 0-1.8 1.819 1.814 1.814 0 0 0 1.8 1.917 2.612 2.612 0 0 0 1.694-.784l.8 1.141a3.5 3.5 0 0 1-2.567 1.07 3.2 3.2 0 0 1-3.344-3.308 3.243 3.243 0 0 1 3.344-3.281"/><path data-name="Path 250" d="M159.101 21.331l-2.1-3.763h1.774l.722 1.534c.205.437.383.918.383.918h.018s.178-.482.383-.918l.713-1.534h1.774l-2.1 3.763v2.612h-1.56z"/></g></g></svg>